<?xml version="1.0" encoding="UTF-8" standalone="no"?>
<!DOCTYPE svg PUBLIC "-//W3C//DTD SVG 20010904//EN" "http://www.w3.org/TR/2001/REC-SVG-20010904/DTD/svg10.dtd">

<svg xmlns="http://www.w3.org/2000/svg" width="7.06944in" height="1.75in" viewBox="0 0 509 126">
  <path id="Selection" fill="white" stroke="black" stroke-width="0" d="M 420.00,0.14
           C 420.00,0.14 428.00,0.14 428.00,0.14
             428.00,0.14 440.00,0.14 440.00,0.14
             456.05,0.03 474.62,5.64 486.96,16.09
             519.16,43.38 515.54,93.76 479.00,115.55
             461.75,125.83 445.31,126.22 426.00,126.00
             408.84,125.80 388.34,118.20 376.29,105.83
             353.61,82.56 353.05,44.87 375.29,21.09
             387.20,8.35 403.29,2.95 420.00,0.14 Z
           M 0.00,3.00
           C 0.00,3.00 90.00,3.00 90.00,3.00
             90.00,3.00 97.26,3.99 97.26,3.99
             97.26,3.99 99.80,12.00 99.80,12.00
             99.80,12.00 104.00,35.00 104.00,35.00
             99.11,33.29 98.04,28.23 95.30,24.00
             91.38,17.94 86.45,12.72 80.00,9.33
             75.18,6.79 70.38,6.07 65.00,6.00
             65.00,6.00 45.00,6.00 45.00,6.00
             32.22,6.18 33.85,13.41 32.72,23.00
             32.72,23.00 32.00,67.00 32.00,67.00
             32.00,67.00 63.00,67.00 63.00,67.00
             67.38,66.98 73.05,66.62 76.99,64.55
             84.30,60.71 84.27,52.21 90.00,50.00
             90.00,50.00 89.04,59.00 89.04,59.00
             89.04,59.00 89.04,75.00 89.04,75.00
             89.04,75.00 90.00,90.00 90.00,90.00
             84.25,86.40 85.55,77.98 77.96,72.70
             74.18,70.07 70.39,70.02 66.00,70.00
             66.00,70.00 32.00,70.00 32.00,70.00
             32.00,70.00 32.72,102.00 32.72,102.00
             32.72,102.00 35.09,113.00 35.09,113.00
             35.09,113.00 47.00,123.00 47.00,123.00
             47.00,123.00 0.00,123.00 0.00,123.00
             0.00,123.00 0.00,121.00 0.00,121.00
             13.28,118.83 14.98,108.57 15.00,97.00
             15.00,97.00 15.00,29.00 15.00,29.00
             14.98,17.43 13.28,7.17 0.00,5.00
             0.00,5.00 0.00,3.00 0.00,3.00 Z
           M 155.00,4.00
           C 178.13,0.95 190.37,2.93 210.00,16.00
             210.00,16.00 210.00,18.00 210.00,18.00
             210.00,18.00 174.00,38.85 174.00,38.85
             174.00,38.85 155.00,49.00 155.00,49.00
             155.00,49.00 155.00,4.00 155.00,4.00 Z
           M 237.00,3.00
           C 237.00,3.00 284.00,3.00 284.00,3.00
             280.21,7.96 273.88,6.26 270.94,16.00
             268.51,24.08 269.00,37.37 269.00,46.00
             269.00,46.00 269.00,95.00 269.00,95.00
             269.01,101.17 269.24,115.69 275.11,118.98
             277.28,120.19 280.55,120.00 283.00,120.00
             283.00,120.00 290.00,120.00 290.00,120.00
             305.30,119.82 321.59,112.86 333.00,102.82
             337.62,98.76 347.41,86.54 352.00,85.00
             352.00,85.00 338.00,123.00 338.00,123.00
             338.00,123.00 237.00,123.00 237.00,123.00
             237.00,123.00 237.00,121.00 237.00,121.00
             250.28,118.83 251.98,108.57 252.00,97.00
             252.00,97.00 252.00,27.00 252.00,27.00
             251.87,15.95 249.17,6.99 237.00,5.00
             237.00,5.00 237.00,3.00 237.00,3.00 Z
           M 305.00,3.00
           C 305.00,3.00 327.00,3.00 327.00,3.00
             327.00,3.00 340.00,4.00 340.00,4.00
             330.93,8.05 329.12,12.37 329.00,22.00
             329.00,22.00 329.00,71.00 329.00,71.00
             329.15,83.68 331.76,83.01 340.00,90.00
             340.00,90.00 318.00,90.00 318.00,90.00
             318.00,90.00 305.00,89.00 305.00,89.00
             315.21,84.92 315.98,81.53 316.00,71.00
             316.00,71.00 316.00,21.00 316.00,21.00
             315.98,15.99 315.81,11.06 311.78,7.43
             311.78,7.43 305.00,3.00 305.00,3.00 Z
           M 425.00,4.71
           C 416.14,4.90 409.16,5.30 401.00,9.37
             376.89,21.43 372.60,51.59 380.70,75.00
             390.26,102.66 413.26,121.43 443.00,121.43
             451.66,121.43 460.25,120.06 468.00,116.02
             491.30,103.88 495.17,73.74 487.30,51.00
             479.31,27.87 461.54,10.04 437.00,5.62
             437.00,5.62 425.00,4.71 425.00,4.71 Z
           M 149.00,72.00
           C 149.00,72.00 122.00,56.20 122.00,56.20
             119.49,54.69 112.63,51.19 111.61,48.62
             110.26,45.20 114.17,38.11 115.76,35.00
             122.42,21.95 135.78,10.06 150.00,6.00
             150.00,6.00 149.00,23.00 149.00,23.00
             149.00,23.00 149.00,72.00 149.00,72.00 Z
           M 177.00,42.00
           C 177.00,42.00 203.00,27.40 203.00,27.40
             205.49,25.92 211.23,22.01 214.00,22.23
             218.37,22.59 222.87,30.43 224.74,34.00
             233.22,50.18 232.00,56.66 232.00,74.00
             224.96,72.32 203.68,58.83 196.00,54.42
             189.98,50.97 181.48,47.13 177.00,42.00 Z
           M 109.00,55.00
           C 109.00,55.00 128.00,65.00 128.00,65.00
             128.00,65.00 165.00,87.00 165.00,87.00
             165.00,87.00 165.00,89.00 165.00,89.00
             165.00,89.00 140.00,103.58 140.00,103.58
             137.66,104.93 131.45,108.92 129.00,108.76
             124.73,108.46 119.34,100.50 117.34,97.00
             107.93,80.60 109.00,72.84 109.00,55.00 Z
           M 194.00,59.00
           C 194.00,59.00 220.00,73.58 220.00,73.58
             222.46,74.99 228.36,77.78 229.39,80.38
             230.73,83.78 226.84,90.94 225.22,94.00
             217.95,107.71 208.07,115.94 194.00,122.00
             194.00,122.00 194.00,59.00 194.00,59.00 Z
           M 133.00,113.00
           C 133.00,113.00 168.00,92.58 168.00,92.58
             173.97,89.16 182.49,83.32 189.00,82.00
             189.00,82.00 189.00,124.00 189.00,124.00
             183.21,125.16 182.20,125.92 176.00,126.00
             161.36,126.17 143.28,125.11 133.00,113.00 Z" />
</svg>